<svg id="Layer_1" data-name="Layer 1" xmlns="http://www.w3.org/2000/svg" viewBox="0 0 6434.41 1000"><defs><style>.cls-1{fill:#e01a22;}.cls-2{fill:#464648;}.cls-3{fill:#67686a;}</style></defs><title>IndustryWeaponLogo</title><path class="cls-1" d="M666.05,613.77q-43.87,44.09-106.45,43.9-62.9.08-106.64-43.9Q408.94,570,409,507.28t43.87-106.6q43.94-43.9,106.62-43.87,62.73-.19,106.53,43.83,44,43.86,43.91,106.65Q710.08,570,666.05,613.77Z"/><path class="cls-2" d="M33,579.83c-22.2-22-33-48.75-33-79.91s11-57.77,33-79.77,48.68-33,79.92-33.07c31,0,57.58,11.13,79.66,33.06s33.07,48.77,33.19,79.77q0,46.84-33.3,79.85-32.79,33.16-79.58,33.13C81.68,612.88,55,601.78,33,579.83Z"/><path class="cls-3" d="M275.32,546c-11.89-11.9-17.84-26.33-17.78-43.94q0-26.18,17.7-43.9c11.83-11.64,26.29-17.72,43.84-17.66s32.18,6,43.82,17.68c11.93,11.72,17.68,26.41,17.74,43.86s-5.89,32.16-17.67,43.82c-11.65,11.87-26.33,17.79-43.87,17.73C301.6,563.67,287.12,557.65,275.32,546Z"/><path class="cls-2" d="M1086,579.83c22.2-22,33-48.75,33-79.91s-11-57.77-33-79.77-48.68-33-79.93-33.07c-31,0-57.57,11.13-79.65,33.06s-33.07,48.77-33.19,79.77q0,46.84,33.29,79.85,32.81,33.16,79.59,33.13C1037.3,612.88,1064,601.78,1086,579.83Z"/><path class="cls-3" d="M843.67,546c11.89-11.9,17.83-26.33,17.77-43.94q0-26.18-17.7-43.9c-11.82-11.64-26.29-17.72-43.83-17.66s-32.18,6-43.82,17.68c-11.93,11.72-17.68,26.41-17.75,43.86s5.9,32.16,17.67,43.82c11.66,11.87,26.34,17.79,43.88,17.73C817.38,563.67,831.86,557.65,843.67,546Z"/><path class="cls-2" d="M365.41,995.83c-30.18,8.21-58.74,4.24-85.72-11.34S235.17,946.08,227.11,916s-4.26-58.68,11.32-85.76C254,803.39,276.86,786,306.89,777.82s58.77-4.25,85.68,11.14q40.56,23.44,52.5,68.76,12.33,45-11.1,85.49C418.36,970.23,395.41,987.79,365.41,995.83Z"/><path class="cls-3" d="M457.24,769.08c-16.25,4.35-31.72,2.28-46.94-6.57s-24.82-21.18-29.17-37.28c-4.17-16.06-2.2-31.63,6.63-46.79S409,653.54,425,649.32c16.11-4.46,31.71-2.1,46.85,6.57s24.9,21.19,29.12,37.21c4.45,16,2.24,31.7-6.58,46.87S473.25,764.69,457.24,769.08Z"/><path class="cls-2" d="M891.87,84c-8-30.24-25.7-53-52.68-68.56S783.66-3.94,753.61,4.11s-53,25.65-68.61,52.68-19.15,55.43-11.19,85.51,25.7,53,52.48,68.63q40.59,23.41,85.8,11.09,45.12-11.82,68.49-52.36C896.17,142.64,899.9,114,891.87,84Z"/><path class="cls-3" d="M741.41,276.88c-4.36-16.25-13.88-28.61-29.16-37.37s-30.75-10.9-46.87-6.62S636.89,246.8,628.17,262s-10.93,30.85-6.6,46.79c4.18,16.18,14,28.51,29.11,37.29s30.8,11,46.79,6.61c16.11-4.15,28.57-13.91,37.29-29.13S745.62,292.94,741.41,276.88Z"/><path class="cls-2" d="M227.12,84c8-30.24,25.7-53,52.68-68.56S335.33-3.94,365.38,4.11,418.33,29.76,434,56.79c15.51,26.88,19.14,55.43,11.19,85.51-8.1,30.09-25.7,53-52.48,68.63Q352.11,234.34,306.89,222q-45.11-11.82-68.48-52.36C222.81,142.64,219.08,114,227.12,84Z"/><path class="cls-3" d="M377.57,276.88c4.37-16.25,13.89-28.61,29.17-37.37q22.69-13,46.87-6.62c16,4.42,28.48,13.91,37.2,29.14s10.94,30.85,6.61,46.79c-4.19,16.18-14,28.51-29.12,37.29s-30.79,11-46.78,6.61c-16.11-4.15-28.58-13.91-37.3-29.13S373.37,292.94,377.57,276.88Z"/><path class="cls-2" d="M753.57,995.83c30.19,8.21,58.74,4.24,85.72-11.34s44.53-38.41,52.58-68.46,4.27-58.68-11.31-85.76C865,803.39,842.13,786,812.1,777.82s-58.78-4.25-85.68,11.14q-40.56,23.44-52.51,68.76-12.31,45,11.11,85.49C700.62,970.23,723.58,987.79,753.57,995.83Z"/><path class="cls-3" d="M661.75,769.08c16.25,4.35,31.72,2.28,46.94-6.57s24.81-21.18,29.17-37.28c4.16-16.06,2.19-31.63-6.63-46.79S710,653.54,694,649.32c-16.11-4.46-31.71-2.1-46.86,6.57S622.25,677.08,618,693.1c-4.46,16-2.25,31.7,6.58,46.87C633.28,755.16,645.74,764.69,661.75,769.08Z"/><path class="cls-3" d="M1372.93,229.75V285h-55.18V229.75Zm-51,121h48V661.12h-48Z"/><path class="cls-3" d="M1456,350.75h48.06V395.9c32.6-28.5,75.37-54.59,130.54-54.59,38.56,0,128.1,8.87,128.1,115.13V661.12h-48V465.87c1.16-73.58-52.18-83.65-86-83.65-52.79,0-96.72,32.7-124.6,62.28V661.12H1456Z"/><path class="cls-3" d="M2191.05,229.75V602.94c0,8.35,3,48.6,3.59,58.18h-43.26l-6-48.69c-46.86,38-78.31,58.13-149.49,58.13-119.85,0-169.73-91.38-169.73-161.94,0-71.83,45.16-167.31,178-167.31,64.1,0,96.11,20.76,138.83,52.21V229.75Zm-48,213.57c-28.46-29.63-68.82-61.1-135.84-61.1-64.1,0-132.92,33.27-132.92,127.58,0,64.05,49.85,119.85,134.07,119.85,51.65,0,105-33.83,134.69-65.87Z"/><path class="cls-3" d="M2586.78,661.12h-48.09V616c-32.62,28.53-75.27,54.6-130.45,54.6-38.55,0-128.18-8.88-128.18-115.13V350.75h48.1V546c-1.2,73.59,52.19,83.66,86,83.66,52.76,0,96.68-32.7,124.51-62.28V350.75h48.09Z"/><path class="cls-3" d="M2682.87,564.34c30.31,38,75.38,65.31,140.67,65.31,51,0,97.26-16,97.26-52.85,0-87.83-258.07-13-258.07-141.08,0-70.72,72.33-94.41,137.63-94.41,104.38,0,142.4,44.5,158.38,67.05L2926.2,438c-25.56-32.67-65.3-55.79-126.42-55.79-56.94,0-89,17.79-89,50.46,0,80.12,258.08,7.72,258.08,140.59,0,71.22-70,97.29-149.51,97.29-68.83,0-125.84-19.54-172.06-73.61Z"/><path class="cls-3" d="M3238.2,391.73H3114.81V579.18c0,33.84,14.83,50.47,63.5,50.47,23.11,0,42.11-4.11,68.17-9.51v41.54c-34.34,5.34-58.68,8.88-78.27,8.88-101.49,0-101.49-61.65-101.49-86.56V391.73h-65.8v-41h65.8V247.6h48.09V350.75H3238.2Z"/><path class="cls-3" d="M3301.69,350.75h48v64.74c27.93-31.48,67.09-74.18,129.33-74.18,10.66,0,19.62.52,28.49,2.41v48c-5.94-.59-17.83-4.11-38.55-4.11-68.27,0-117.48,78.91-119.27,87.76V661.12h-48Z"/><path class="cls-3" d="M3549.64,716.82c15.48,7.12,39.73,9.51,55.77,9.51,36.8,0,60.49-17.79,89-77.1L3534.78,350.75H3587l133,250.47,127-250.47h52.18l-181.55,350.1c-19.68,38-52.85,69.4-108.57,69.4-20.2,0-39.83-3.54-59.36-9.5Z"/><path class="cls-2" d="M4219.21,438l-81.29,223.11h-69.41L3942.68,342.49h77.09l83.75,223.65,83-223.65h65.21L4336,566.14l84.88-223.65h74.69L4371.1,661.12h-70.64Z"/><path class="cls-2" d="M4832.59,565.5c-5.23,26.14-48,106.26-166.08,106.26-113.95,0-182.13-71.2-182.13-170.83,0-90.28,59.26-169.17,176.75-169.17,119.85,1.29,177.46,75.37,177.46,190.48H4559.12c3,20.21,14.25,86.67,105,90.19,46.29,0,77.19-21.95,87.81-46.93Zm-72.33-100.22c-11.32-54-48.08-74.14-100.88-74.14-38.59,0-83,13-97.9,74.14Z"/><path class="cls-2" d="M5214.73,609.5c0,21.28,1.13,42.7,5.9,51.62h-75.31c-2.45-10.67-4.2-21.37-4.2-32-30.85,17.79-76.48,42.68-139.42,42.68-42.09,0-123.43-17.86-123.43-96.09,0-107.41,160.23-122.82,262.85-128.81V432.68c0-24.32-21.94-41.54-82.43-41.54-67.66,0-81.91,24.91-86.06,42.13h-76.48c17.74-86.63,102.57-101.51,161.93-101.51,153.68,0,156.65,74.81,156.65,118.69Zm-73.61-109.23a584.6,584.6,0,0,0-114.42,16.07c-45.81,10.64-67.09,26.11-67.66,54-.61,27.27,17.18,44.47,53.32,44.47,55.87,0,100.26-24.33,128.76-41.54Z"/><path class="cls-2" d="M5297.77,342.49h72.38v40.88c16.61-16,53.41-51.61,123.43-51.61,105,0,170.85,71.18,170.85,167.94,0,108-77.76,172.06-167.88,172.06-64.12,0-93.8-21.31-125.17-43.91v142.4h-73.61Zm73.61,220.13c28.4,22,58.17,46.29,108.47,46.29,57,0,109.84-36.85,109.84-106.82,0-71.84-55.77-107.41-112.06-107.41-53.5,0-83.7,25.55-106.25,43.92Z"/><path class="cls-2" d="M5702.37,501.5c0-85.45,51.61-169.74,178.54-169.74s178.68,84.29,178.68,169.74c0,127-91.35,170.26-178.68,170.26S5702.37,628.52,5702.37,501.5Zm282.43-1.23c0-74.71-48.12-105.59-103.89-105.59-56.29,0-103.76,30.88-103.76,105.59,0,67.68,37.93,108.64,103.76,108.64S5984.8,568,5984.8,500.27Z"/><path class="cls-2" d="M6118.24,342.49h72.42v39.73c23.12-22.53,54.5-50.46,119.14-50.46,66.53,0,124.61,27.93,124.61,125.25V661.12H6361V484.3c0-62.92-19-89.62-68.28-89.62-58.74,0-82.47,24.39-100.88,46.85V661.12h-73.55Z"/></svg>